<?xml version="1.0" encoding="utf-8"?>
<!DOCTYPE svg PUBLIC "-//W3C//DTD SVG 20010904//EN" "http://www.w3.org/TR/2001/REC-SVG-20010904/DTD/svg10.dtd">
<svg version="1.0" xmlns="http://www.w3.org/2000/svg" width="32pt" height="32pt" viewBox="0 0 32 32" style="" preserveAspectRatio="xMidYMid meet">
<g fill="#8EE5EF32" stroke="#8EE5EF32">
<path d="M 6.299 7.222 C 4.167 9.578 5.460 10.799 7.823 8.661 C 9.982 6.707 12.143 6.463 11.458 8.250 C 11.113 9.148 12.393 9.500 16.000 9.500 C 19.607 9.500 20.887 9.148 20.542 8.250 C 19.857 6.463 22.018 6.707 24.177 8.661 C 26.538 10.797 27.930 9.501 25.685 7.257 C 23.157 4.729 8.579 4.702 6.299 7.222 "/></g>
<g fill="#2EA2FE16" stroke="#2EA2FE16">
<path d="M 12.248 22.714 L 15.962 26.429 19.522 22.978 C 21.481 21.080 22.582 19.361 21.970 19.157 C 21.358 18.953 19.764 19.812 18.429 21.067 L 16.000 23.349 13.686 21.174 C 9.642 17.376 8.323 18.790 12.248 22.714 "/></g>
<g fill="#2EA2FE16" stroke="#2EA2FE16">
<path d="M 24.528 21.089 C 24.976 22.500 24.323 23.294 21.809 24.392 C 18.785 25.712 18.715 25.835 21.000 25.819 C 25.713 25.785 28.413 24.487 29.007 21.971 C 29.513 19.826 29.229 19.497 26.763 19.373 C 24.438 19.256 24.043 19.559 24.528 21.089 "/></g>
<g fill="#2EA2FE16" stroke="#2EA2FE16">
<path d="M 2.933 21.843 C 3.643 24.497 6.255 25.784 11.000 25.819 C 13.281 25.835 13.210 25.710 10.183 24.388 C 7.966 23.420 6.975 22.370 7.195 21.226 C 7.435 19.980 6.803 19.476 4.882 19.379 C 2.506 19.259 2.309 19.509 2.933 21.843 "/></g>
<g fill="#55AAFF06" stroke="#55AAFF06">
<path d="M 21.625 15.708 C 20.186 17.148 21.173 18.750 23.500 18.750 C 26.085 18.750 26.496 18.217 25.235 16.500 C 24.334 15.274 22.469 14.865 21.625 15.708 "/></g>
<g fill="#55AAFF06" stroke="#55AAFF06">
<path d="M 7.729 16.132 C 5.240 17.524 5.602 18.750 8.500 18.750 C 9.900 18.750 11.000 18.171 11.000 17.434 C 11.000 15.532 9.714 15.021 7.729 16.132 "/></g>
<g fill="#2A9FFF18" stroke="#2A9FFF18">
<path d="M 12.428 26.116 C 12.128 26.602 13.784 27.000 16.108 27.000 C 18.432 27.000 20.002 26.669 19.598 26.264 C 18.526 25.193 13.068 25.080 12.428 26.116 "/></g>
<g fill="#55AAFF06" stroke="#55AAFF06">
<path d="M 29.071 16.415 C 28.325 17.313 28.029 18.362 28.412 18.745 C 29.205 19.538 31.109 16.950 30.697 15.640 C 30.549 15.168 29.817 15.516 29.071 16.415 "/></g>
<g fill="#55AAFF06" stroke="#55AAFF06">
<path d="M 1.015 15.536 C 1.043 17.257 2.871 19.463 3.636 18.697 C 4.046 18.288 3.620 17.192 2.690 16.262 C 1.761 15.332 1.007 15.005 1.015 15.536 "/></g>
<g fill="#4CB2FF0A" stroke="#4CB2FF0A">
<path d="M 20.537 14.939 C 20.218 15.456 20.866 15.810 21.978 15.727 C 23.090 15.643 24.000 15.220 24.000 14.787 C 24.000 13.681 21.240 13.803 20.537 14.939 "/></g>
<g fill="#76D4F036" stroke="#76D4F036">
<path d="M 7.637 13.505 C 7.273 14.452 7.844 14.601 9.814 14.074 C 12.347 13.397 12.373 13.331 10.307 12.791 C 9.001 12.449 7.932 12.735 7.637 13.505 "/></g>
<g fill="#76D4F036" stroke="#76D4F036">
<path d="M 20.992 13.026 C 19.820 13.767 20.025 13.973 21.950 13.985 C 23.512 13.994 24.053 13.653 23.442 13.042 C 22.839 12.439 21.930 12.433 20.992 13.026 "/></g>
<g fill="#4CB2FF0A" stroke="#4CB2FF0A">
<path d="M 28.794 15.613 C 28.524 17.096 28.610 17.096 29.872 15.613 C 30.700 14.641 30.816 14.000 30.166 14.000 C 29.573 14.000 28.955 14.726 28.794 15.613 "/></g>
<g fill="#4CB2FF0A" stroke="#4CB2FF0A">
<path d="M 2.128 15.613 C 3.390 17.096 3.476 17.096 3.206 15.613 C 3.045 14.726 2.427 14.000 1.834 14.000 C 1.184 14.000 1.300 14.641 2.128 15.613 "/></g>
<g fill="#4CB2FF0A" stroke="#4CB2FF0A">
<path d="M 10.000 14.800 C 10.000 15.460 10.540 16.000 11.200 16.000 C 12.133 16.000 12.133 15.733 11.200 14.800 C 10.267 13.867 10.000 13.867 10.000 14.800 "/></g>
<g fill="#4CB2FF0A" stroke="#4CB2FF0A">
<path d="M 7.624 14.799 C 7.212 15.466 7.390 16.000 8.024 16.000 C 8.653 16.000 8.987 15.460 8.766 14.799 C 8.455 13.865 8.202 13.865 7.624 14.799 "/></g>
</svg>
